<!-- icon666.com - MILLIONS vector ICONS FREE --><svg version="1.1" id="Capa_1" xmlns="http://www.w3.org/2000/svg" xmlns:xlink="http://www.w3.org/1999/xlink" x="0px" y="0px" viewBox="0 0 512.009 512.009" style="enable-background:new 0 0 512.009 512.009;" xml:space="preserve"><g><g><path d="M355.494,113.996c-24.699,0-48.076,5.76-68.871,15.995c-31.382-28.738-72.832-45.006-115.599-45.006 C76.722,84.984,0,161.706,0,256c0,94.303,76.722,171.025,171.025,171.025c34.878,0,67.345-10.505,94.421-28.506 c26.242,18.444,57.785,28.506,90.048,28.506c86.298,0,156.506-70.208,156.514-156.506 C512.009,184.212,441.792,113.996,355.494,113.996z M355.494,394.259c-22.412,0-44.396-6.131-63.473-17.514 c30.893-30.958,50.024-73.66,50.028-120.746c0-27.733-6.798-55.263-19.64-79.633c-4.216-8.014-14.146-11.076-22.134-6.851 c-8.005,4.215-11.076,14.129-6.842,22.134c10.366,19.666,15.841,41.924,15.841,64.351c0,76.243-62.016,138.259-138.241,138.259 c-76.234,0-138.25-62.025-138.25-138.259S94.8,117.75,171.034,117.75c32.116,0,62.301,10.753,86.759,30.586 c-35.825,28.709-58.812,72.809-58.812,122.183c0.009,29.739,8.395,58.688,24.255,83.706c4.846,7.641,14.963,9.913,22.604,5.059 c7.65-4.846,9.913-14.972,5.067-22.604c-12.531-19.773-19.16-42.652-19.16-66.161c0-68.238,55.511-123.749,123.749-123.749 c68.22,0,123.74,55.511,123.74,123.749C479.235,338.748,423.714,394.259,355.494,394.259z"></path></g></g></svg>